Coordinates
version=1
nRows=161
nColumns=4
inDegrees=yes

Units are S.I. units (second, meters, Newtons, ...)
If the header above contains a line with 'inDegrees', this indicates whether rotational values are in degrees (yes) or radians (no).

endheader
time	baseangle	kneeangle	bladeangle
      0.00000000	     28.32326832	    -69.76488436	     41.44162055
      0.02000000	     24.73473397	    -67.61770531	     42.88297207
      0.04000000	     21.52583656	    -65.56645394	     44.04061609
      0.06000000	     18.60385131	    -63.58153642	     44.97773249
      0.08000000	     15.91629725	    -61.65044963	     45.73416552
      0.10000000	     13.42442549	    -59.76461166	     46.34029150
      0.12000000	     11.08792674	    -57.90916209	     46.82132285
      0.14000000	      8.88933496	    -56.08336911	     47.19405634
      0.16000000	      6.80150698	    -54.27586644	     47.47436976
      0.18000000	      4.81198739	    -52.48524780	     47.67331175
      0.20000000	      2.91057510	    -50.71075598	     47.80023532
      0.22000000	      1.07983994	    -48.94349227	     47.86470134
      0.24000000	     -0.68579891	    -47.18376086	     47.86991266
      0.26000000	     -2.39194730	    -45.43207553	     47.82420262
      0.28000000	     -4.05082905	    -43.68068916	     47.73155546
      0.30000000	     -5.66558260	    -41.93056831	     47.59615428
      0.32000000	     -7.23878942	    -40.18292238	     47.42189221
      0.34000000	     -8.77995545	    -38.43055946	     47.21052594
      0.36000000	    -10.28822288	    -36.67768760	     46.96588092
      0.38000000	    -11.77205493	    -34.91723830	     46.68924162
      0.40000000	    -13.23217070	    -33.15076566	     46.38264554
      0.42000000	    -14.66925845	    -31.37992027	     46.04913891
      0.44000000	    -16.09059889	    -29.59765897	     45.68814276
      0.46000000	    -17.49632499	    -27.80565090	     45.30171365
      0.48000000	    -18.88646791	    -26.00561816	     44.89161052
      0.50000000	    -20.26770542	    -24.19045685	     44.45746361
      0.52000000	    -21.63979798	    -22.36184267	     44.00091332
      0.54000000	    -23.00247195	    -20.52150988	     43.52370212
      0.56000000	    -24.36191709	    -18.66213725	     43.02404862
      0.58000000	    -25.71543015	    -16.78838855	     42.50343512
      0.60000000	    -27.06928734	    -14.89273385	     41.96196095
      0.62000000	    -28.42285794	    -12.97666900	     41.39937079
      0.64000000	    -29.77568326	    -11.04174739	     40.81742464
      0.66000000	    -31.13382677	     -9.07995019	     40.21376696
      0.68000000	    -32.49680727	     -7.09255549	     39.58934799
      0.70000000	    -33.86413700	     -5.08086768	     38.94498442
      0.72000000	    -35.24208163	     -3.03615353	     38.27820845
      0.74000000	    -36.63030220	     -0.95929882	     37.58956734
      0.76000000	    -38.02849475	      1.14883406	     36.87961994
      0.78000000	    -39.44333534	      3.29799901	     36.14528874
      0.80000000	    -40.87248526	      5.48438566	     35.38804711
      0.82000000	    -42.32307999	      7.71870426	     34.60432151
      0.84000000	    -43.79552222	     10.00145725	     33.79401506
      0.86000000	    -45.29037117	     12.33337390	     32.95696015
      0.88000000	    -46.81588884	     14.72729321	     32.08857938
      0.90000000	    -46.80591710	     15.08731677	     31.71858967
      0.92000000	    -46.80120839	     15.45188872	     31.34930701
      0.94000000	    -46.79867770	     15.82065665	     30.97800718
      0.96000000	    -46.54354804	     15.79305130	     30.74963730
      0.98000000	    -46.03575458	     15.36932794	     30.66612268
      1.00000000	    -45.52785643	     14.95006822	     30.57747893
      1.02000000	    -45.27301530	     14.55457583	     30.71847079
      1.04000000	    -44.54613046	     13.42882894	     31.11794140
      1.06000000	    -43.82558792	     12.31639360	     31.50987286
      1.08000000	    -43.10857939	     11.21286364	     31.89649673
      1.10000000	    -42.39971516	     10.12534591	     32.27523658
      1.12000000	    -41.69615550	      9.04946722	     32.64764466
      1.14000000	    -40.99757385	      7.98473940	     33.01385067
      1.16000000	    -40.30125223	      6.92704894	     33.37524723
      1.18000000	    -39.61173161	      5.88330724	     33.72945214
      1.20000000	    -38.92630797	      4.84941522	     34.07788033
      1.22000000	    -38.24471394	      3.82498706	     34.42065418
      1.24000000	    -37.56433650	      2.80613511	     34.75905527
      1.26000000	    -36.88965361	      1.79958744	     35.09084204
      1.28000000	    -36.21800294	      0.80146243	     35.41656784
      1.30000000	    -35.54927214	     -0.18855446	     35.73784958
      1.32000000	    -34.88085862	     -1.17416940	     36.05504717
      1.34000000	    -34.21718682	     -2.14882267	     36.36602558
      1.36000000	    -33.55572049	     -3.11622120	     36.67195503
      1.38000000	    -32.89625399	     -4.07662429	     36.97288929
      1.40000000	    -32.23858629	     -5.03028013	     37.26887550
      1.42000000	    -31.58023707	     -5.98071570	     37.56096014
      1.44000000	    -30.92558428	     -6.92155974	     37.84715026
      1.46000000	    -30.27216377	     -7.85634122	     38.12871050
      1.48000000	    -29.61975689	     -8.78527447	     38.40521455
      1.50000000	    -28.96592529	     -9.71176882	     38.67785513
      1.52000000	    -28.31502619	    -10.62958683	     38.94476370
      1.54000000	    -27.66460454	    -11.54214474	     39.20689102
      1.56000000	    -27.01447904	    -12.44962564	     39.46424192
      1.58000000	    -26.36220346	    -13.35534345	     39.71768051
      1.60000000	    -25.71212690	    -14.25318072	     39.96544777
      1.62000000	    -25.06180226	    -15.14645778	     40.20840691
      1.64000000	    -24.41104794	    -16.03533682	     40.44654125
      1.66000000	    -23.75968099	    -16.91997574	     40.67982533
      1.68000000	    -23.10524282	    -17.80358964	     40.90901265
      1.70000000	    -22.45209219	    -18.68019297	     41.13248333
      1.72000000	    -21.79776903	    -19.55300770	     41.35099108
      1.74000000	    -21.14208254	    -20.42217757	     41.56449045
      1.76000000	    -20.48254543	    -21.29085373	     41.77364245
      1.78000000	    -19.82354027	    -22.15314256	     41.97694009
      1.80000000	    -19.16257778	    -23.01220222	     42.17504542
      1.82000000	    -18.49945235	    -23.86816668	     42.36788723
      1.84000000	    -17.83163010	    -24.72413516	     42.55602867
      1.86000000	    -17.16353257	    -25.57429458	     42.73808085
      1.88000000	    -16.49262326	    -26.42175129	     42.91461034
      1.90000000	    -15.81867435	    -27.26663365	     43.08551873
      1.92000000	    -15.13908507	    -28.11200038	     43.25126253
      1.94000000	    -14.45833191	    -28.95210848	     43.41057857
      1.96000000	    -13.77381009	    -29.79002424	     43.56392707
      1.98000000	    -13.08526065	    -30.62587462	     43.71118257
      2.00000000	    -12.39243881	    -31.45979419	     43.85244277
      2.02000000	    -11.69256356	    -32.29478154	     43.98737815
      2.04000000	    -10.99025956	    -33.12519180	     44.11546803
      2.06000000	    -10.28279175	    -33.95405012	     44.23682992
      2.08000000	     -9.56981883	    -34.78148693	     44.35133665
      2.10000000	     -8.84852415	    -35.61050013	     44.45905733
      2.12000000	     -8.12357370	    -36.43548198	     44.55921530
      2.14000000	     -7.39203508	    -37.25944857	     44.65144520
      2.16000000	     -6.65361921	    -38.08253560	     44.73611762
      2.18000000	     -5.90528430	    -38.90774519	     44.81302678
      2.20000000	     -5.15177938	    -39.72950412	     44.88124728
      2.22000000	     -4.39009596	    -40.55082170	     44.94087633
      2.24000000	     -3.61975120	    -41.37185952	     44.99155472
      2.26000000	     -2.83752046	    -42.19563633	     45.03310859
      2.28000000	     -2.04830350	    -43.01659997	     45.06488034
      2.30000000	     -1.24882138	    -43.83778853	     45.08654565
      2.32000000	     -0.43849170	    -44.65938257	     45.09779457
      2.34000000	      0.38329448	    -45.48155003	     45.09821969
      2.36000000	      1.22019170	    -46.30738858	     45.08715993
      2.38000000	      2.06710011	    -47.13136362	     45.06424319
      2.40000000	      2.92767331	    -47.95655764	     45.02885511
      2.42000000	      3.80278434	    -48.78321199	     44.98025246
      2.44000000	      4.69644017	    -49.61446563	     44.91772479
      2.46000000	      5.60334025	    -50.44480370	     44.84134166
      2.48000000	      6.52767973	    -51.27740230	     44.74969788
      2.50000000	      7.47066506	    -52.11256626	     44.64158165
      2.52000000	      8.43668304	    -52.95353401	     44.51679612
      2.54000000	      9.42059854	    -53.79484242	     44.37411777
      2.56000000	     10.42710900	    -54.63978402	     44.21246747
      2.58000000	     11.45780903	    -55.48877811	     44.03068176
      2.60000000	     12.51444918	    -56.34228338	     43.82747624
      2.62000000	     13.60278689	    -57.20380445	     43.60060445
      2.64000000	     14.71740075	    -58.06791629	     43.35007062
      2.66000000	     15.86438270	    -58.93821757	     43.07338819
      2.68000000	     17.04636444	    -59.81539515	     42.76861992
      2.70000000	     18.27061125	    -60.70331581	     42.43237316
      2.72000000	     19.53194457	    -61.59668364	     42.06452679
      2.74000000	     20.83829753	    -62.49955205	     41.66117019
      2.76000000	     22.19411309	    -63.41306958	     41.21846796
      2.78000000	     23.60874946	    -64.34169131	     40.73286605
      2.80000000	     25.07852308	    -65.28054652	     40.20181581
      2.82000000	     26.61452662	    -66.23454967	     39.61978827
      2.84000000	     28.22443000	    -67.20576865	     38.98107982
      2.86000000	     29.92317322	    -68.20013182	     38.27694881
      2.88000000	     31.71007859	    -69.21375548	     37.50360721
      2.90000000	     33.60436566	    -70.25379154	     36.64842207
      2.92000000	     33.43073676	    -70.55903981	     37.12838601
      2.94000000	     33.24624927	    -70.85851357	     37.61228290
      2.96000000	     33.03888430	    -71.15090544	     38.11218686
      2.98000000	     32.11872716	    -71.06063559	     38.94190757
      3.00000000	     30.52449960	    -70.59338516	     40.06895131
      3.02000000	     28.95082102	    -70.12551035	     41.17468849
      3.04000000	     28.32327943	    -69.76488870	     41.44161227
      3.06000000	     24.73473397	    -67.61770531	     42.88297207
      3.08000000	     21.52583656	    -65.56645394	     44.04061609
      3.10000000	     18.60385131	    -63.58153642	     44.97773249
      3.12000000	     15.91629725	    -61.65044963	     45.73416552
      3.14000000	     13.42442549	    -59.76461166	     46.34029150
      3.16000000	     11.08792674	    -57.90916209	     46.82132285
      3.18000000	      8.88933496	    -56.08336911	     47.19405634
      3.20000000	      6.80150698	    -54.27586644	     47.47436976
